<svg width="224" height="90" viewBox="0 0 224 90" fill="none" xmlns="http://www.w3.org/2000/svg">
<rect width="211.053" height="25" transform="translate(6 6)" fill="#060606"/>
<path d="M18.1028 19.3104L24.5064 25.6822H19.6918L14.9248 20.7564V25.6822H11V13.9237H14.9248V18.0074L19.4058 13.9237H24.2681L18.1028 19.3104ZM36.3092 21.1059H28.9681V22.9015L37.6439 22.8379V25.6822H25.0433V13.9237H37.6439L37.6598 16.768H28.9681V18.3252H36.3092V21.1059ZM45.896 14.1621C44.7095 14.1621 43.7509 13.9025 43.0199 13.3835C42.289 12.8538 41.9288 12.0593 41.9394 11H44.0528C44.0528 11.4873 44.2223 11.8951 44.5612 12.2235C44.9108 12.5519 45.3504 12.7161 45.8801 12.7161C46.3992 12.7161 46.8282 12.5519 47.1672 12.2235C47.5168 11.8951 47.6915 11.4873 47.6915 11H49.8049C49.8049 12.0487 49.4394 12.8379 48.7085 13.3676C47.9882 13.8973 47.0507 14.1621 45.896 14.1621ZM42.6545 21.2172L49.1693 13.9237H53.0782V25.6822H49.1693V18.3729L42.6545 25.6822H38.7297V13.9237H42.6545V21.2172ZM54.0689 19.8188C54.0689 18.643 54.4132 17.5837 55.1018 16.6409C55.8009 15.6981 56.749 14.9619 57.9461 14.4322C59.1537 13.892 60.4884 13.6218 61.9503 13.6218C63.2639 13.6218 64.4503 13.8337 65.5096 14.2574C66.569 14.6706 67.4376 15.2585 68.1156 16.0212C68.7935 16.7733 69.2437 17.6578 69.4662 18.6748H65.3984C65.2395 18.2511 64.9694 17.8856 64.588 17.5784C64.2173 17.2606 63.7988 17.0223 63.3327 16.8634C62.8666 16.7045 62.4111 16.625 61.9662 16.625C61.3412 16.625 60.7321 16.7521 60.1389 17.0064C59.5562 17.2606 59.0795 17.6313 58.7088 18.1186C58.3486 18.5953 58.1685 19.1621 58.1685 19.8188C58.1685 20.4756 58.3486 21.0477 58.7088 21.535C59.0689 22.0116 59.535 22.3771 60.1071 22.6314C60.6897 22.875 61.3094 22.9968 61.9662 22.9968C62.6971 22.9968 63.3698 22.822 63.9842 22.4725C64.6092 22.1229 65.07 21.625 65.3666 20.9788H69.4503C69.2173 21.9852 68.7618 22.8697 68.0838 23.6324C67.4058 24.3845 66.5425 24.9672 65.4937 25.3803C64.445 25.7934 63.2639 26 61.9503 26C60.499 26 59.1696 25.7299 57.9619 25.1896C56.7649 24.6494 55.8168 23.9078 55.1177 22.965C54.4185 22.0222 54.0689 20.9735 54.0689 19.8188ZM70.3201 22.1705V19.9936H75.8657V22.1705H70.3201ZM86.3698 13.9237H90.0404V25.6822H86.3698V21.5826C85.533 22.4407 84.3465 22.8697 82.8105 22.8697C81.8041 22.8697 80.8402 22.6843 79.9185 22.3136C79.0075 21.9322 78.2607 21.3443 77.6781 20.5498C77.0954 19.7447 76.8041 18.7383 76.8041 17.5307V13.9237H80.4906V17.483C80.4906 18.2881 80.7607 18.929 81.301 19.4057C81.8412 19.8824 82.6092 20.1208 83.605 20.1208C84.569 20.1208 85.2681 19.9036 85.7025 19.4693C86.1474 19.0349 86.3698 18.3888 86.3698 17.5307V13.9237ZM102.615 21.1059H95.2741V22.9015L103.95 22.8379V25.6822H91.3493V13.9237H103.95L103.966 16.768H95.2741V18.3252H102.615V21.1059ZM121.831 13.9237V25.6822H117.922V20.375L115.332 25.6822H111.725L108.961 20.3114V25.6822H105.036V13.9237H109.517L113.521 22.0116L117.462 13.9237H121.831ZM137.572 13.9237V25.6822H133.632V16.7045H127.085V25.6822H123.144V13.9237H137.572ZM142.804 13.9237V21.2172L149.319 13.9237H153.228V25.6822H149.319V18.3729L142.804 25.6822H138.879V13.9237H142.804ZM161.925 13.6695C163.376 13.6695 164.684 13.9396 165.85 14.4799C167.025 15.0095 167.942 15.7458 168.598 16.6886C169.266 17.6208 169.6 18.6748 169.6 19.8506C169.6 21.0159 169.266 22.0646 168.598 22.9968C167.942 23.929 167.031 24.6653 165.865 25.2055C164.7 25.7352 163.392 26 161.941 26C160.542 26 159.25 25.7352 158.064 25.2055C156.877 24.6653 155.934 23.929 155.235 22.9968C154.547 22.054 154.202 21.0053 154.202 19.8506C154.202 18.6854 154.547 17.6313 155.235 16.6886C155.934 15.7458 156.872 15.0095 158.048 14.4799C159.234 13.9396 160.526 13.6695 161.925 13.6695ZM161.941 23.0286C162.534 23.0286 163.101 22.9015 163.641 22.6472C164.192 22.393 164.637 22.0275 164.976 21.5508C165.315 21.0741 165.484 20.5074 165.484 19.8506C165.484 19.1938 165.309 18.6271 164.96 18.1504C164.621 17.6631 164.176 17.2977 163.625 17.054C163.074 16.7998 162.502 16.6727 161.909 16.6727C161.305 16.6727 160.733 16.7998 160.193 17.054C159.652 17.3083 159.213 17.679 158.874 18.1663C158.546 18.643 158.381 19.2044 158.381 19.8506C158.381 20.5074 158.551 21.0741 158.89 21.5508C159.229 22.0275 159.668 22.393 160.209 22.6472C160.759 22.9015 161.337 23.0286 161.941 23.0286ZM174.49 18.1027H180.767V13.9237H184.676V25.6822H180.767V21.1854H174.49V25.6822H170.566V13.9237H174.49V18.1027ZM201.785 25.6822H197.829L196.732 23.6642H190.074L188.978 25.6822H185.021L191.393 13.9237H195.413L201.785 25.6822ZM193.411 17.5148L191.504 21.0106H195.302L193.411 17.5148ZM198.166 17.1017V13.9237H212.053L198.166 17.1017ZM212.053 13.9237V17.1176H207.096V25.6822H203.187V17.1176H198.166V13.9237H212.053Z" fill="white"/>
<g clip-path="url(#clip0_16_3713)">
<path d="M56.8329 36C56.8329 36 56.5261 40.617 54.602 49.1475C52.6779 57.678 50.9238 62.2474 50.9238 62.2474H62.75C64.4028 55.0688 66.0953 45.0259 66.0953 45.0259C66.0953 45.0259 67.8508 56.7749 69.5861 62.2474H81.4933C81.4933 62.2474 79.575 57.616 77.4135 49.1475C75.252 40.6783 74.781 36 74.781 36H56.8329Z" fill="#231F20"/>
<path d="M103.683 36C103.753 36.4119 103.818 36.8232 103.879 37.2344L103.641 36C103.641 36 99.7604 49.1237 95.0134 54.1448C95.0134 54.2953 95.0134 54.4437 95.0134 54.5913C94.6798 49.6156 94.6335 42.8078 95.8789 36H83.8906C83.8906 36 84.6142 40.617 84.6142 49.1475C84.6142 57.6779 83.8906 62.2474 83.8906 62.2474H95.8789C95.8789 62.2474 95.8731 62.2151 95.8622 62.1538C99.091 50.0736 103.74 43.0894 104.421 42.1056C105.257 52.9068 103.683 62.2474 103.683 62.2474H115.671C115.671 62.2474 114.948 57.6779 114.948 49.1475C114.948 40.617 115.671 36 115.671 36H103.683Z" fill="#231F20"/>
<path d="M165.417 36H147.47C147.47 36 147.154 40.617 145.233 49.1475C143.313 57.6779 141.56 62.2474 141.56 62.2474H153.386C153.744 60.6926 154.014 59.3704 154.357 57.6779C155.445 57.3193 158.178 57.2408 159.04 57.6779C159.451 59.5641 159.786 60.8698 160.222 62.2474H172.129C172.129 62.2474 170.237 57.6779 168.055 49.1475C165.881 40.6444 165.417 36 165.417 36ZM155.226 53.3555C156.097 48.7896 156.732 45.0267 156.732 45.0267C156.732 45.0267 157.333 48.9329 158.179 53.3655C157.364 53.5794 156.26 53.5794 155.226 53.3555Z" fill="#231F20"/>
<path d="M129.012 46.7378C129.012 46.7378 129.012 46.7364 129.012 46.7357C128.813 55.444 130.056 62.2482 130.056 62.2482H118.068C118.068 62.2482 118.792 57.6787 118.792 49.1482C118.792 40.6178 118.068 36.0007 118.068 36.0007H142.881C142.881 36.0007 142.157 37.9049 142.157 41.3387C142.157 44.7725 142.881 46.7385 142.881 46.7385C142.881 46.7385 140.938 46.0184 136.006 46.0184C131.075 46.0184 129.012 46.7385 129.012 46.7385V46.7378Z" fill="#231F20"/>
<path d="M162.497 60.6163L62.2178 65.6197L63.1436 84L163.424 78.9966L162.497 60.6163Z" fill="#FF5A59"/>
<path d="M68.0236 77.4597C67.8521 77.6023 67.656 77.6743 67.4331 77.6757C67.2204 77.6772 67.0091 77.6131 66.7992 77.4835C66.5894 77.3538 66.449 77.1529 66.381 76.8807C66.2189 75.6463 66.1046 74.4033 66.0481 73.1595C66.0162 72.5337 66.004 71.9029 66.0061 71.2785C66.0083 70.6483 65.9714 69.954 66.0431 69.3815C66.064 69.2151 66.1574 69.0625 66.2696 68.9616C66.381 68.8608 66.5821 68.7269 66.8144 68.6657C67.1342 68.5814 67.5525 68.5793 67.9281 68.5713C68.3029 68.5634 68.6835 68.5584 69.0692 68.5555C69.4123 68.5533 69.7581 68.5454 70.1062 68.5325C70.4549 68.5195 70.8262 68.4748 71.1786 68.446C71.4862 68.4215 71.7473 68.4762 71.9189 68.5749C72.0911 68.6736 72.2619 68.8889 72.2901 69.1172C72.3574 69.6617 72.2561 70.4258 72.2568 71.0768C72.2575 71.7069 72.2756 72.3443 72.3118 72.9737C72.3472 73.6068 72.3892 74.2434 72.4363 74.8764C72.4848 75.5246 72.5723 76.1979 72.6201 76.8216C72.641 77.0931 72.5535 77.3179 72.3856 77.4604C72.2177 77.603 72.0231 77.675 71.8002 77.6765C71.5874 77.6779 71.3776 77.6138 71.1692 77.4842C70.9608 77.3545 70.8045 77.1414 70.7582 76.8814C70.6591 76.3226 70.6272 75.6989 70.5794 75.1257C70.5317 74.5531 70.4883 73.9813 70.4499 73.413C70.413 72.8765 70.3877 72.3414 70.3732 71.8092C70.3588 71.277 70.3559 70.7211 70.3653 70.1413C70.2234 70.142 70.1525 70.1428 70.0114 70.1435C69.8609 70.1442 69.7162 70.1457 69.5772 70.1464C69.4375 70.1471 69.2936 70.1377 69.159 70.1334C68.9629 70.1276 68.7509 70.1305 68.5482 70.1219C68.3449 70.1125 68.135 70.1197 67.9201 70.142C67.91 70.69 67.9071 71.2331 67.9107 71.7703C67.9143 72.3076 67.9296 72.8506 67.9577 73.3987C68.0257 74.5437 68.1256 75.6809 68.2595 76.8202C68.2732 77.1032 68.1965 77.3164 68.025 77.459L68.0236 77.4597Z" fill="#231F20"/>
<path d="M73.977 68.7125C74.0138 68.5965 74.0725 68.4828 74.1528 68.3719C74.2331 68.2609 74.3265 68.163 74.4328 68.078C74.5392 67.993 74.655 67.9318 74.7802 67.8944C74.9046 67.8569 75.0306 67.8584 75.1572 67.8994C75.5617 67.7388 75.9734 67.6049 76.3917 67.4969C76.81 67.3888 77.2253 67.3254 77.6378 67.3074C78.0503 67.2887 78.4547 67.3232 78.8505 67.4097C79.2464 67.4961 79.6255 67.6625 79.9881 67.8987C80.2761 68.0866 80.5337 68.3207 80.7544 68.6038C80.9751 68.886 81.1567 69.1849 81.3 69.5004C81.5454 70.0671 81.6597 70.6332 81.6408 71.1971C81.622 71.761 81.4976 72.2867 81.2646 72.7728C81.0316 73.259 80.7037 73.6881 80.2775 74.0598C79.8513 74.4314 79.3462 74.7029 78.7587 74.875C78.318 75.0039 77.865 75.068 77.3997 75.0658C76.9344 75.0637 76.4756 75.0378 76.0226 74.9881C76.066 75.6002 76.0921 75.9056 76.1529 76.5163C76.1645 76.6315 76.1818 76.7525 76.2057 76.8778C76.2296 77.0031 76.2462 77.1292 76.2549 77.2552C76.2636 77.3805 76.2621 77.5044 76.2498 77.6246C76.2376 77.7449 76.2006 77.858 76.1398 77.9631C76.0386 78.1727 75.8916 78.3023 75.697 78.3506C75.5016 78.3989 75.3069 78.3894 75.113 78.3232C74.9184 78.2562 74.744 78.1425 74.5898 77.9819C74.4357 77.8205 74.3445 77.6246 74.3171 77.3949C74.2107 76.4507 74.1224 75.508 74.0522 74.561C73.8416 74.4573 73.6839 74.327 73.5775 74.1692C73.4718 74.0122 73.4197 73.8516 73.4219 73.6881C73.4241 73.5254 73.4704 73.3691 73.5609 73.2208C73.6513 73.0724 73.7801 72.9507 73.9487 72.8549C73.9104 71.5046 73.914 70.1586 73.9581 68.8083C73.9661 68.7701 73.9697 68.7514 73.9777 68.7132L73.977 68.7125ZM78.6327 69.3757C78.2348 69.182 77.7304 69.1504 77.2622 69.2274C76.794 69.3045 76.3367 69.4442 75.8924 69.6473C75.8736 70.7974 75.883 71.9439 75.9185 73.0933C76.425 73.174 76.9409 73.192 77.4641 73.1459C77.9873 73.1005 78.4692 72.9399 78.8954 72.6619C79.2001 72.4638 79.4092 72.2053 79.5221 71.8986C79.6349 71.5925 79.6755 71.2806 79.6429 70.9645C79.6104 70.6483 79.5047 70.3465 79.3267 70.0578C79.148 69.769 78.9063 69.5083 78.632 69.375L78.6327 69.3757Z" fill="#231F20"/>
<path d="M82.6908 69.0957C82.7184 68.8566 82.8725 68.6391 83.0534 68.5166C83.2343 68.3942 83.4319 68.3323 83.646 68.3308C83.8494 68.3294 84.0404 68.3863 84.2184 68.5008C84.3964 68.6153 84.56 68.822 84.5889 69.0352C84.6598 69.5566 84.5831 70.2631 84.5838 70.876C84.5838 71.4607 84.5918 72.0542 84.6063 72.6548C84.6128 72.9205 84.6164 73.053 84.6258 73.3188C85.0347 72.6166 85.4443 71.9152 85.856 71.2158C86.2721 70.5094 86.6918 69.8029 87.1107 69.0979C87.1997 68.9495 87.3228 68.8357 87.4798 68.7558C87.6368 68.6758 87.8011 68.6355 87.9726 68.634C88.1868 68.6326 88.3785 68.6895 88.5471 68.804C88.7157 68.9185 88.8359 69.0863 88.9075 69.3067C88.906 70.0758 88.914 70.8449 88.9329 71.6141C88.9654 72.4495 89.003 73.2856 89.0501 74.1181C89.0985 74.9701 89.1861 75.8552 89.2107 76.6791C89.2187 76.952 89.1181 77.1753 88.9372 77.3179C88.7563 77.4605 88.5551 77.5325 88.3322 77.5339C88.1195 77.5354 87.9125 77.4713 87.7106 77.3416C87.5088 77.212 87.3748 77.0024 87.3452 76.7389C87.2909 76.2571 87.2714 75.7472 87.2352 75.2748C87.1983 74.8023 87.16 74.3292 87.1375 73.8704C87.1281 73.6832 87.123 73.5521 87.1158 73.4837C87.1079 73.4153 87.1006 73.3548 87.0941 73.3022C87.0869 73.2497 87.0825 73.1863 87.0803 73.1128C87.0782 73.0393 87.0745 72.9025 87.0695 72.7016C86.872 73.0509 86.7742 73.2252 86.5803 73.5745C86.2699 74.1412 85.9624 74.7094 85.6562 75.2777C85.3552 75.8372 85.0556 76.3989 84.7589 76.9614C84.6533 77.0982 84.531 77.1962 84.3928 77.2545C84.2546 77.3129 84.1106 77.3431 83.9623 77.3438C83.7285 77.3452 83.5172 77.279 83.3298 77.1436C83.1424 77.009 83.002 76.8023 82.968 76.5639C82.803 75.4094 82.7922 74.0735 82.7458 72.8334C82.6995 71.5925 82.5649 70.1982 82.6915 69.0957H82.6908Z" fill="#231F20"/>
<path d="M92.837 76.9059C92.819 77.1364 92.7415 77.3388 92.6047 77.5123C92.4673 77.6859 92.3059 77.8047 92.1199 77.8688C91.9332 77.9329 91.7422 77.9343 91.5468 77.8724C91.3514 77.8111 91.1907 77.66 91.0677 77.4201C91.0062 77.3056 90.9549 77.0989 90.9137 76.8C90.8731 76.5012 90.8384 76.1894 90.8094 75.8639C90.7812 75.539 90.7631 75.2365 90.7559 74.9578C90.7487 74.6798 90.7443 74.5085 90.7422 74.4451C90.7023 73.3439 90.6778 72.2443 90.6683 71.1424C90.6683 71.1107 90.6647 70.953 90.6589 70.6677C90.6538 70.3833 90.6546 70.07 90.6632 69.7272C90.672 69.3852 90.6937 69.0531 90.7269 68.7319C90.7602 68.4107 90.8196 68.1918 90.8955 68.0759C90.9968 67.921 91.117 67.8036 91.2581 67.7345C91.3992 67.6654 91.5417 67.6351 91.6858 67.6452C91.8297 67.6546 91.973 67.6956 92.1156 67.7684C92.2581 67.8411 92.3753 67.9505 92.468 68.0975C92.5092 68.15 92.5483 68.2127 92.5838 68.2861C92.6192 68.3596 92.6359 68.4287 92.6359 68.4907C92.6308 68.9905 92.6301 69.4939 92.6163 69.9836C92.6026 70.4733 92.5975 70.9717 92.6018 71.478C92.9861 71.254 93.3414 71.0012 93.6684 70.7196C93.9949 70.438 94.3147 70.1176 94.628 69.7568C94.7033 69.6617 94.8118 69.5184 94.9529 69.3282C95.094 69.1381 95.2467 68.9415 95.4103 68.7406C95.5737 68.5397 95.738 68.3517 95.9016 68.1767C96.0651 68.0017 96.2069 67.8879 96.3256 67.8346C96.563 67.7172 96.7887 67.674 97.0022 67.7035C97.2157 67.7338 97.3908 67.8137 97.5268 67.9448C97.6636 68.0751 97.749 68.2429 97.7837 68.4482C97.8184 68.6527 97.7758 68.8666 97.6556 69.0884C97.6123 69.1835 97.5659 69.2627 97.5167 69.3261C97.4682 69.3895 97.419 69.4478 97.3706 69.5011C97.3221 69.5544 97.2707 69.6127 97.2164 69.6761C97.1621 69.7395 97.1085 69.8136 97.0543 69.8986C96.9139 70.1212 96.7475 70.3458 96.5543 70.5734C96.3611 70.8017 96.1584 71.0243 95.945 71.2417C95.7315 71.4593 95.5137 71.6688 95.2908 71.8705C95.068 72.0721 94.8559 72.2637 94.6555 72.4437C94.9283 72.726 95.2018 73.0091 95.4768 73.2913C95.751 73.5736 96.0318 73.8567 96.3184 74.139C96.3842 74.2017 96.5275 74.3349 96.7482 74.5387C96.9689 74.7425 97.2034 74.9672 97.453 75.212C97.7019 75.4576 97.9306 75.7004 98.1376 75.9402C98.3445 76.18 98.4661 76.3701 98.5052 76.5048C98.5652 76.7129 98.5652 76.9109 98.4994 77.0946C98.4336 77.2782 98.3265 77.4288 98.1781 77.5447C98.0298 77.6607 97.8575 77.7247 97.6622 77.7363C97.466 77.7478 97.2692 77.6866 97.0703 77.5519C96.9819 77.49 96.8901 77.4144 96.7945 77.3258C96.6997 77.2372 96.6093 77.1464 96.5246 77.0528C96.4399 76.9592 96.3582 76.8677 96.2793 76.7791C96.2004 76.6906 96.1324 76.6207 96.0767 76.5681C95.5578 76.046 95.0383 75.5239 94.518 75.0032C94.0021 74.4869 93.4868 73.969 92.9723 73.4505C92.9195 73.4721 92.8609 73.4959 92.7972 73.5232C92.7335 73.5499 92.6352 73.5765 92.6228 73.5953C92.4962 73.789 92.6633 74.6669 92.6974 75.197C92.7314 75.7277 92.7748 76.2606 92.8283 76.795C92.8312 76.8389 92.832 76.8613 92.8348 76.9052L92.837 76.9059Z" fill="#231F20"/>
<path d="M99.2186 74.9572C99.1274 74.7894 99.0883 74.6324 99.1006 74.4847C99.1122 74.3371 99.1571 74.2082 99.2352 74.0973C99.3126 73.9864 99.4154 73.8985 99.542 73.8344C99.6694 73.7703 99.8076 73.7379 99.9574 73.7372C100.118 73.7365 100.279 73.7718 100.441 73.8445C100.604 73.9173 100.745 74.0375 100.868 74.2046C101.056 74.4876 101.224 74.7865 101.372 75.1005C101.52 75.4145 101.731 75.6918 102.005 75.9316C102.174 75.5103 102.282 75.058 102.329 74.5733C102.377 74.0893 102.397 73.5939 102.389 73.0883C102.385 72.8781 102.38 72.667 102.372 72.456C102.364 72.2457 102.359 72.0189 102.357 71.7762C102.353 71.3649 102.348 70.9753 102.342 70.6059C102.335 70.2371 102.327 69.8526 102.317 69.4521C102.317 69.3254 102.317 69.2628 102.318 69.136C102.34 68.9567 102.408 68.8141 102.52 68.7082C102.633 68.6023 102.831 68.467 103.059 68.4043C103.357 68.3229 103.764 68.3129 104.149 68.2941C104.533 68.2754 104.936 68.2668 105.334 68.2466C105.67 68.2293 106.017 68.2027 106.359 68.1846C106.701 68.1666 107.056 68.1191 107.384 68.091C107.669 68.0665 107.918 68.1213 108.089 68.2207C108.26 68.3193 108.388 68.5001 108.474 68.7629C108.477 70.0751 108.485 71.3865 108.496 72.6987C108.502 73.3569 108.513 74.0152 108.527 74.6727C108.542 75.3238 108.579 76 108.566 76.6265C108.561 76.8894 108.448 77.1097 108.262 77.2574C108.075 77.405 107.871 77.4799 107.65 77.4814C107.439 77.4828 107.239 77.4159 107.052 77.2812C106.864 77.1465 106.734 76.9341 106.714 76.6863C106.668 76.1275 106.686 75.4944 106.67 74.8988C106.654 74.3018 106.642 73.7041 106.635 73.1071C106.623 71.9793 106.614 70.8515 106.61 69.7244C105.806 69.7878 105.002 69.8511 104.198 69.9145C104.198 70.199 104.204 70.4993 104.217 70.8154C104.229 71.1316 104.236 71.4319 104.239 71.7164C104.243 72.2349 104.246 72.4942 104.254 73.0127C104.265 73.6177 104.232 74.2413 104.181 74.8377C104.133 75.4058 103.992 76.0684 103.754 76.5819C103.594 76.9247 103.368 77.1897 103.108 77.3647C102.848 77.539 102.57 77.6276 102.273 77.6298C101.88 77.6326 101.498 77.5195 101.127 77.292C100.756 77.0644 100.43 76.772 100.166 76.4177C99.974 76.1606 99.8033 75.9114 99.6505 75.6809C99.4986 75.4512 99.3546 75.21 99.2186 74.9586V74.9572Z" fill="#231F20"/>
<path d="M110.144 68.5778C110.196 68.3351 110.307 68.1507 110.476 68.0233C110.645 67.8958 110.836 67.8317 111.048 67.8302C111.26 67.8288 111.457 67.8879 111.637 68.0074C111.818 68.127 111.941 68.3077 112.006 68.5497C112.013 69.6508 112.02 70.752 112.028 71.8532C112.433 71.7869 112.636 71.7544 113.04 71.6882C113.09 71.1927 113.2 70.7045 113.367 70.2234C113.535 69.743 113.776 69.2951 114.095 68.899C114.375 68.5504 114.698 68.2926 115.048 68.127C115.399 67.9613 115.766 67.8778 116.15 67.8749C116.662 67.8713 117.15 68.0074 117.613 68.2833C118.076 68.5591 118.463 68.9523 118.734 69.4521C119.001 69.9433 119.177 70.4762 119.271 71.0134C119.367 71.5507 119.424 72.0901 119.449 72.6252C119.478 73.2553 119.378 73.9784 119.216 74.5776C119.052 75.1875 118.745 75.8803 118.368 76.4032C118.131 76.7301 117.823 76.9995 117.446 77.2112C117.068 77.4229 116.657 77.5303 116.21 77.5339C115.892 77.536 115.593 77.4777 115.312 77.3596C115.031 77.2415 114.776 77.0801 114.547 76.8778C114.318 76.6747 114.115 76.4428 113.938 76.1821C113.762 75.9214 113.614 75.6492 113.495 75.3661C113.501 75.3726 113.504 75.3755 113.511 75.382C113.359 75.0262 113.248 74.6769 113.176 74.3355C113.105 73.9942 113.057 73.655 113.033 73.318C112.634 73.3713 112.435 73.3979 112.037 73.4512C112.046 74.5394 112.055 75.6268 112.064 76.715C112.045 76.9981 111.942 77.2112 111.754 77.3538C111.566 77.4964 111.361 77.5684 111.139 77.5699C110.929 77.5713 110.728 77.5072 110.536 77.3776C110.344 77.248 110.236 77.047 110.211 76.7748C110.175 74.0432 110.151 71.3116 110.14 68.58L110.144 68.5778ZM114.898 72.6396C114.884 72.8967 114.933 73.2373 114.967 73.5794C115.001 73.9214 115.067 74.2528 115.164 74.5725C115.262 74.893 115.399 75.1782 115.575 75.4296C115.752 75.6802 115.995 75.8523 116.304 75.9444C116.539 75.8905 116.736 75.7579 116.897 75.5469C117.058 75.3359 117.189 75.0802 117.291 74.7792C117.393 74.4789 117.468 74.1548 117.515 73.8069C117.563 73.4591 117.586 73.117 117.585 72.7793C117.583 72.3472 117.549 71.9338 117.482 71.5391C117.415 71.1445 117.324 70.8038 117.216 70.5208C117.083 70.1672 116.934 69.8957 116.766 69.7178C116.599 69.5399 116.428 69.4514 116.257 69.4528C116.085 69.4543 115.913 69.545 115.737 69.725C115.562 69.9051 115.4 70.1643 115.252 70.5028C115.168 70.6829 115.1 70.8967 115.048 71.1445C114.996 71.3923 114.971 71.6508 114.941 71.8805C114.926 71.9922 114.912 72.1182 114.919 72.2442C114.925 72.3702 114.904 72.5142 114.897 72.6396H114.898Z" fill="#231F20"/>
<path d="M126.49 76.4738C126.461 76.7568 126.349 76.97 126.155 77.1126C125.961 77.2552 125.753 77.3272 125.532 77.3286C125.32 77.3301 125.122 77.2631 124.936 77.1284C124.75 76.9937 124.649 76.795 124.634 76.5328C124.659 75.4605 124.673 74.3881 124.678 73.3158C124.548 73.475 124.405 73.6233 124.249 73.7609C124.093 73.8991 123.926 74.0158 123.748 74.1116C123.571 74.2074 123.386 74.2773 123.193 74.3205C123 74.3636 122.801 74.3651 122.599 74.3248C122.117 74.2232 121.741 74.0043 121.469 73.6694C121.197 73.3346 120.991 72.9457 120.85 72.5042C120.709 72.0627 120.618 71.6098 120.578 71.146C120.536 70.6829 120.513 70.2717 120.509 69.913C120.507 69.7128 120.506 69.4917 120.508 69.249C120.511 69.007 120.541 68.7773 120.601 68.5613C120.662 68.3452 120.761 68.1651 120.897 68.0225C121.033 67.8799 121.24 67.8072 121.518 67.8051C121.636 67.8043 121.752 67.8245 121.865 67.8655C121.978 67.9066 122.081 67.9664 122.174 68.0448C122.267 68.1234 122.338 68.2199 122.389 68.3358C122.44 68.4511 122.459 68.5843 122.453 68.7298C122.445 68.9386 122.44 69.141 122.432 69.3304C122.423 69.5198 122.421 69.7099 122.424 69.8993C122.431 70.384 122.468 70.8507 122.534 71.2979C122.601 71.7452 122.725 72.1902 122.905 72.6316C123.36 71.9396 123.741 71.2828 124.031 70.5366C124.302 69.8374 124.505 69.0877 124.694 68.3358C124.755 68.1774 124.86 68.0528 125.011 67.9628C125.163 67.8728 125.333 67.8267 125.524 67.8252C125.726 67.8238 125.918 67.8835 126.102 68.0031C126.285 68.1227 126.418 68.3034 126.498 68.5454C126.558 71.1885 126.556 73.8293 126.492 76.4731L126.49 76.4738Z" fill="#231F20"/>
<path d="M133.654 75.2437C133.846 75.2531 134.013 75.302 134.153 75.3899C134.295 75.4784 134.408 75.5851 134.494 75.7104C134.579 75.8357 134.628 75.9797 134.637 76.1425C134.646 76.3052 134.603 76.4708 134.51 76.6387C134.475 76.7121 134.404 76.7993 134.298 76.8994C134.191 76.9994 134.095 77.0607 134.009 77.0823C133.293 77.2652 132.604 77.4114 131.891 77.4654C131.202 77.518 130.47 77.513 129.763 77.4409C129.562 77.4208 129.341 77.4021 129.103 77.3826C128.865 77.3631 128.658 77.2969 128.481 77.1824C128.159 76.975 128.004 76.6775 128.016 76.2894C128.075 74.0467 128.086 71.8048 128.048 69.5615C127.927 69.478 127.829 69.3728 127.751 69.2475C127.674 69.1215 127.625 68.9875 127.606 68.8457C127.586 68.7038 127.601 68.567 127.651 68.4345C127.701 68.3026 127.789 68.1888 127.914 68.0931C128.123 67.9239 128.365 67.8086 128.642 67.7488C128.918 67.6891 129.19 67.6365 129.454 67.5933C130.005 67.504 130.561 67.4593 131.117 67.4557C131.673 67.4521 132.244 67.4377 132.816 67.4283C132.985 67.4255 133.184 67.4125 133.407 67.3851C133.63 67.3578 133.828 67.3751 134.002 67.4363C134.208 67.509 134.374 67.6228 134.499 67.7798C134.623 67.9368 134.7 68.1046 134.728 68.2832C134.756 68.4618 134.728 68.6361 134.643 68.8046C134.558 68.9738 134.402 69.11 134.181 69.2029C133.921 69.3116 133.63 69.3591 133.325 69.3513C133.02 69.3426 132.727 69.3397 132.449 69.3411C132.041 69.344 131.634 69.352 131.227 69.3649C130.82 69.3779 130.414 69.4124 130.007 69.4679C130.021 70.2003 130.031 70.9327 130.036 71.6651C130.422 71.6839 130.809 71.681 131.195 71.6572C131.58 71.6335 131.97 71.6003 132.353 71.5701C132.522 71.5571 132.696 71.5413 132.868 71.519C133.039 71.4967 133.218 71.4938 133.399 71.5153C133.632 71.5427 133.818 71.6392 133.947 71.7962C134.076 71.9532 134.154 72.1296 134.18 72.3241C134.206 72.5185 134.17 72.7115 134.073 72.9017C133.974 73.0918 133.815 73.2294 133.601 73.3158C133.418 73.3893 133.171 73.4475 132.86 73.4865C132.549 73.5254 132.22 73.5542 131.877 73.5722C131.535 73.5902 131.197 73.6003 130.865 73.6024C130.533 73.6046 130.254 73.6017 130.029 73.5923C130.021 74.2391 130.009 74.8865 129.99 75.5332C130.576 75.6031 131.171 75.6067 131.769 75.5527C132.356 75.5 132.97 75.395 133.541 75.2415C133.586 75.2415 133.609 75.2415 133.654 75.2408V75.2437Z" fill="#231F20"/>
<path d="M143.522 71.7502C143.78 71.8222 143.972 71.9554 144.1 72.1492C144.228 72.3436 144.287 72.546 144.279 72.7563C144.27 72.9673 144.199 73.1654 144.066 73.3504C143.934 73.5355 143.742 73.6551 143.495 73.7097C143.464 74.6251 143.42 75.539 143.362 76.4536C143.344 76.7158 143.261 76.9498 143.112 77.1544C142.962 77.3596 142.788 77.5044 142.589 77.5894C142.391 77.6743 142.187 77.6938 141.979 77.6484C141.77 77.603 141.59 77.4655 141.437 77.2364C141.37 77.1328 141.328 77.0118 141.311 76.8764C141.294 76.7403 141.288 76.6149 141.297 76.499C141.35 75.5902 141.392 74.6813 141.419 73.7717C140.171 73.7803 138.923 73.7883 137.675 73.7969C137.651 74.6914 137.617 75.5837 137.572 76.4774C137.566 76.5926 137.548 76.7115 137.52 76.8318C137.492 76.952 137.448 77.0601 137.388 77.1544C137.234 77.4065 137.047 77.5699 136.83 77.6448C136.613 77.7197 136.405 77.7182 136.209 77.6412C136.012 77.5641 135.848 77.4288 135.715 77.2364C135.583 77.0435 135.524 76.8058 135.538 76.5228C135.661 73.7998 135.675 71.0826 135.581 68.3589C135.57 68.0852 135.642 67.8483 135.799 67.6473C135.955 67.4465 136.137 67.306 136.346 67.2253C136.556 67.1454 136.772 67.1382 136.995 67.2051C137.216 67.2721 137.39 67.4363 137.51 67.6985C137.546 67.7827 137.571 67.8584 137.585 67.9268C137.599 67.9952 137.608 68.0716 137.612 68.1558C137.659 69.3462 137.687 70.536 137.696 71.7271C138.945 71.7185 140.195 71.7106 141.446 71.7019C141.437 70.5734 141.41 69.4478 141.361 68.32C141.351 68.1097 141.388 67.9095 141.474 67.7194C141.578 67.4875 141.736 67.3233 141.949 67.2275C142.162 67.1317 142.374 67.1036 142.584 67.1447C142.796 67.185 142.984 67.2866 143.15 67.4486C143.315 67.6106 143.407 67.8332 143.422 68.1176C143.48 69.3297 143.514 70.5389 143.522 71.7523V71.7502Z" fill="#231F20"/>
<path d="M145.024 68.6736C145.035 68.4352 145.17 68.217 145.338 68.0953C145.508 67.9735 145.7 67.9116 145.914 67.9094C146.117 67.908 146.313 67.9649 146.502 68.0794C146.69 68.194 146.87 68.397 146.917 68.6138C147.027 69.1316 146.987 69.8417 146.999 70.4546C147.011 71.0386 147.016 71.6328 147.012 72.2334C147.01 72.4991 147.008 72.6316 147.003 72.8974C147.437 72.201 147.869 71.4995 148.277 70.7938C148.678 70.1002 149.064 69.388 149.442 68.6758C149.52 68.5281 149.634 68.4136 149.784 68.3337C149.935 68.2537 150.096 68.2134 150.267 68.2119C150.481 68.2105 150.677 68.2674 150.856 68.3819C151.034 68.4964 151.167 68.6642 151.254 68.8846C151.304 69.653 151.338 70.4221 151.356 71.192C151.378 72.0281 151.394 72.8686 151.379 73.6968C151.363 74.5458 151.343 75.4432 151.248 76.2592C151.216 76.5321 151.076 76.7554 150.871 76.8987C150.665 77.0413 150.45 77.1133 150.227 77.1155C150.013 77.1169 149.818 77.0528 149.639 76.9231C149.459 76.7936 149.36 76.5818 149.371 76.3196C149.391 75.8343 149.439 75.3272 149.454 74.8541C149.469 74.3809 149.473 73.9078 149.481 73.4491C149.485 73.2618 149.488 73.1307 149.483 73.0623C149.48 72.9939 149.476 72.9334 149.471 72.8808C149.467 72.8283 149.465 72.7649 149.467 72.6914C149.469 72.618 149.47 72.4804 149.473 72.2802C149.263 72.6295 149.157 72.8038 148.943 73.1531C148.596 73.7271 148.238 74.2959 147.873 74.857C147.507 75.4223 147.13 75.9862 146.746 76.5415C146.618 76.6783 146.479 76.7763 146.331 76.8353C146.182 76.8937 146.033 76.9239 145.885 76.9246C145.65 76.926 145.451 76.8591 145.285 76.7244C145.12 76.5897 145.015 76.3816 145.015 76.1439C145.016 74.9722 145.142 73.6499 145.143 72.4113C145.144 71.1711 144.97 69.7891 145.024 68.6736Z" fill="#231F20"/>
<path d="M153.15 68.6182C153.159 68.3798 153.29 68.1616 153.458 68.0399C153.626 67.9181 153.816 67.8562 154.03 67.854C154.234 67.8526 154.43 67.9095 154.62 68.024C154.811 68.1385 154.994 68.3409 155.043 68.5584C155.158 69.0755 155.125 69.7863 155.14 70.3992C155.155 70.9832 155.161 71.5774 155.154 72.178C155.151 72.4437 155.149 72.5762 155.143 72.842C155.58 72.1463 156.013 71.4448 156.42 70.7384C156.818 70.0463 157.197 69.334 157.569 68.6203C157.645 68.4726 157.757 68.3581 157.907 68.2782C158.055 68.1983 158.217 68.158 158.387 68.1565C158.601 68.1551 158.798 68.212 158.977 68.3265C159.157 68.441 159.293 68.6088 159.382 68.8292C159.44 69.5969 159.479 70.3667 159.498 71.1366C159.521 71.9734 159.536 72.8146 159.513 73.6414C159.491 74.4904 159.458 75.3892 159.349 76.2038C159.313 76.4767 159.167 76.6999 158.959 76.8432C158.751 76.9859 158.534 77.0586 158.311 77.0601C158.098 77.0615 157.904 76.9974 157.727 76.8677C157.55 76.7381 157.455 76.5264 157.471 76.2642C157.5 75.7788 157.556 75.2718 157.578 74.7987C157.598 74.3255 157.607 73.8517 157.618 73.3937C157.623 73.2064 157.627 73.0753 157.623 73.0069C157.62 72.9385 157.616 72.878 157.612 72.8254C157.608 72.7729 157.607 72.7095 157.609 72.636C157.61 72.5626 157.613 72.425 157.615 72.2248C157.405 72.5741 157.298 72.7484 157.082 73.0977C156.731 73.6724 156.367 74.2413 155.996 74.8016C155.622 75.3676 155.237 75.9323 154.842 76.4868C154.711 76.6236 154.571 76.7216 154.421 76.7806C154.271 76.8389 154.121 76.8692 153.972 76.8699C153.738 76.8714 153.539 76.8044 153.377 76.6697C153.215 76.535 153.115 76.3269 153.118 76.0893C153.14 74.9154 153.281 73.5945 153.286 72.3566C153.29 71.1179 153.109 69.7366 153.15 68.6189V68.6182ZM159.205 65.1412C159.24 65.3817 159.205 65.6128 159.101 65.834C158.997 66.055 158.879 66.2553 158.75 66.4346C158.503 66.7832 158.178 67.0374 157.782 67.198C157.386 67.3586 156.967 67.4349 156.529 67.427C156.09 67.4198 155.657 67.3305 155.23 67.1598C154.803 66.9891 154.43 66.7471 154.11 66.4346C153.98 66.3093 153.854 66.1523 153.731 65.965C153.608 65.777 153.519 65.5891 153.464 65.4004C153.409 65.2125 153.395 65.0288 153.425 64.8509C153.454 64.673 153.561 64.5311 153.748 64.4253C153.825 64.3727 153.909 64.3324 154.001 64.3058C154.092 64.2791 154.188 64.2776 154.286 64.2957C154.511 64.3382 154.696 64.4318 154.83 64.5823C154.963 64.7328 155.098 64.892 155.232 65.0583C155.366 65.2247 155.521 65.3731 155.696 65.5034C155.873 65.633 156.159 65.736 156.441 65.7108C156.535 65.7022 156.65 65.6755 156.755 65.6691C156.861 65.6633 156.961 65.6345 157.048 65.5805C157.145 65.5199 157.221 65.4379 157.271 65.3428C157.322 65.2485 157.369 65.1512 157.414 65.0511C157.458 64.9518 157.502 64.8538 157.546 64.7594C157.591 64.6651 157.656 64.5859 157.741 64.5225C157.854 64.4275 157.986 64.3771 158.139 64.3706C158.291 64.3641 158.444 64.3921 158.598 64.4541C158.75 64.5161 158.885 64.6068 158.999 64.7264C159.113 64.8459 159.182 64.9842 159.205 65.1412Z" fill="#231F20"/>
</g>
<defs>
<clipPath id="clip0_16_3713">
<rect width="121.206" height="48" fill="white" transform="translate(50.9238 36)"/>
</clipPath>
</defs>
</svg>
